<?xml version="1.0" standalone="no"?>
<!DOCTYPE svg PUBLIC "-//W3C//DTD SVG 20010904//EN"
 "http://www.w3.org/TR/2001/REC-SVG-20010904/DTD/svg10.dtd">
<svg version="1.0" xmlns="http://www.w3.org/2000/svg"
 width="798.000000pt" height="798.000000pt" viewBox="0 0 798.000000 798.000000"
 preserveAspectRatio="xMidYMid meet">
<metadata>
Created by potrace 1.14, written by Peter Selinger 2001-2017
</metadata>
<g transform="translate(0.000000,798.000000) scale(0.100000,-0.100000)"
fill="#000000" stroke="none">
<path d="M3518 7975 c-2 -1 -38 -5 -81 -9 -70 -6 -177 -19 -247 -31 -14 -2
-41 -7 -60 -10 -208 -36 -564 -140 -735 -215 -112 -50 -251 -118 -327 -160
-86 -49 -276 -167 -288 -180 -3 -3 -41 -32 -85 -65 -150 -111 -352 -300 -510
-475 -75 -84 -224 -284 -288 -387 -199 -323 -329 -753 -268 -888 26 -58 85
-111 166 -151 62 -30 94 -39 211 -59 97 -16 246 -77 354 -144 135 -84 303
-238 437 -401 110 -134 346 -453 389 -527 53 -92 63 -124 55 -182 0 -5 -25
-14 -53 -21 -267 -62 -526 -207 -723 -405 -153 -153 -261 -322 -299 -470 -46
-177 21 -378 179 -540 182 -186 343 -264 530 -259 97 3 286 31 380 56 22 5 47
12 55 13 90 19 269 76 345 110 17 7 55 23 85 36 86 37 263 134 374 206 257
166 552 429 831 738 50 55 92 102 95 105 3 3 46 52 95 110 50 58 102 118 116
135 15 16 90 104 169 195 78 91 154 179 169 195 15 17 51 57 80 90 135 151
406 417 522 510 405 328 662 467 988 534 150 31 199 36 376 36 154 0 162 -1
216 -27 130 -65 208 -200 234 -408 6 -49 6 -234 1 -290 -6 -56 -18 -135 -21
-138 -1 -2 -33 27 -71 64 -82 79 -169 143 -250 182 -61 30 -164 68 -205 76
-13 2 -42 9 -64 15 -22 5 -67 14 -100 18 -88 12 -401 8 -465 -5 -30 -6 -66
-14 -79 -16 -402 -85 -783 -347 -1168 -803 -10 -12 -27 -32 -38 -45 -10 -12
-95 -120 -188 -238 -261 -330 -337 -419 -517 -600 -284 -285 -558 -486 -862
-634 -65 -31 -122 -56 -128 -56 -43 0 137 -314 325 -565 259 -347 502 -584
890 -863 77 -56 145 -105 150 -110 6 -5 15 -11 20 -13 6 -2 51 -31 100 -63 50
-32 122 -79 160 -104 100 -64 279 -198 430 -321 169 -138 165 -134 179 -146 6
-5 45 -39 86 -75 93 -80 148 -130 219 -197 31 -29 58 -53 61 -53 3 0 25 60 49
133 109 333 200 546 315 740 25 43 46 82 46 87 0 6 5 10 10 10 6 0 10 4 10 10
0 32 504 777 924 1364 190 265 308 468 352 601 2 6 17 51 34 100 17 50 32 99
34 110 3 11 9 40 15 65 5 25 14 74 20 110 51 330 43 538 -29 752 -29 85 -99
234 -138 292 -16 22 -18 35 -11 60 26 91 50 281 50 403 0 462 -264 786 -741
909 -75 19 -280 27 -355 14 -106 -18 -121 -21 -160 -32 -50 -14 -46 -13 -70
-22 -11 -5 -49 -19 -85 -33 -200 -76 -484 -263 -730 -481 -103 -91 -391 -379
-516 -516 l-91 -100 -34 22 c-66 43 -215 111 -274 126 -171 43 -393 55 -544
30 -317 -53 -622 -241 -785 -483 -99 -148 -176 -364 -193 -539 -12 -132 -6
-400 11 -502 3 -14 7 -47 11 -75 7 -65 16 -116 22 -138 3 -14 -13 -25 -80 -56
-188 -86 -460 -176 -597 -197 -19 -3 -46 -8 -60 -10 -62 -13 -260 -12 -333 1
-101 18 -158 47 -217 112 -91 99 -101 209 -33 355 57 122 133 229 232 327 212
212 476 336 779 364 23 3 45 7 48 10 12 11 4 160 -12 220 -8 34 -33 94 -54
134 l-39 72 87 78 c48 43 89 81 92 84 4 5 88 78 210 183 54 46 180 146 281
223 535 408 1082 659 1638 751 l104 18 101 -105 c55 -57 112 -115 125 -128 13
-14 30 -22 38 -19 22 9 72 50 70 58 -1 3 -33 41 -72 83 -125 139 -183 227
-316 480 -147 281 -278 608 -369 926 -87 301 -127 512 -146 767 -8 107 -28
138 -108 164 -27 9 -459 21 -468 13z m439 -143 c23 -13 30 -34 38 -122 16
-179 23 -239 40 -320 2 -14 7 -41 10 -60 11 -71 86 -344 131 -477 45 -136 161
-432 214 -548 70 -153 105 -226 160 -337 38 -77 55 -120 47 -123 -7 -2 -99
-22 -206 -45 -262 -56 -495 -132 -706 -231 -83 -39 -333 -181 -491 -280 -209
-130 -471 -318 -633 -453 -121 -101 -240 -209 -336 -303 l-33 -33 -109 138
c-60 75 -157 189 -215 252 -95 104 -133 142 -264 261 -120 108 -345 250 -459
289 -68 24 -97 30 -155 34 -36 3 -75 7 -86 10 -35 7 -97 42 -121 68 -27 29
-51 86 -48 113 2 11 6 50 9 88 4 37 10 77 15 90 5 12 17 49 26 82 25 85 93
224 201 408 52 87 94 161 94 163 0 5 58 82 70 94 3 3 37 41 75 85 323 368 804
705 1300 910 50 20 99 41 110 46 82 35 385 126 518 155 80 18 248 44 314 50
43 4 80 8 83 11 11 10 386 -4 407 -15z m2486 -2162 c37 -13 67 -27 67 -31 0
-5 6 -9 13 -9 8 0 23 -10 35 -23 l21 -23 -87 -1 c-117 -1 -234 -14 -362 -39
-77 -16 -257 -72 -320 -100 -331 -150 -608 -353 -964 -710 -192 -192 -274
-281 -745 -814 -208 -235 -483 -518 -626 -643 -44 -39 -82 -74 -85 -77 -4 -6
-176 -140 -261 -203 -52 -39 -264 -165 -354 -211 -161 -80 -430 -179 -555
-202 -14 -3 -32 -7 -40 -9 -8 -2 -31 -7 -50 -10 -19 -3 -42 -8 -50 -10 -46
-13 -129 -20 -235 -20 -115 0 -123 1 -185 32 -36 18 -77 45 -92 60 l-28 29 61
-6 c95 -9 192 -5 339 14 85 12 436 113 505 146 11 5 43 18 71 29 143 55 347
166 534 291 101 68 341 251 425 325 180 158 510 482 690 679 55 60 107 117
115 126 24 26 183 202 221 244 19 21 45 50 59 65 14 15 68 74 120 132 176 194
480 493 595 584 28 22 52 43 55 46 18 21 214 140 310 188 102 51 210 97 275
117 64 20 178 47 223 53 98 14 230 5 305 -19z"/>
<path d="M3358 7539 c-12 -8 0 -124 23 -211 l9 -37 53 4 c28 1 53 3 53 4 1 1
-4 29 -11 64 -8 34 -16 87 -20 117 -4 30 -9 58 -11 62 -6 9 -81 6 -96 -3z"/>
<path d="M3424 7180 c29 -174 142 -526 236 -736 62 -138 126 -273 143 -304 11
-19 35 -66 54 -104 60 -119 97 -173 113 -168 8 3 30 11 48 18 l32 13 -31 53
c-59 99 -197 373 -244 483 -25 61 -50 119 -56 130 -9 20 -68 181 -94 260 -26
76 -67 220 -85 298 -10 43 -21 82 -25 85 -4 4 -27 7 -52 7 l-45 0 6 -35z"/>
</g>
</svg>
