<?xml version="1.0" encoding="utf-8"?>
<!-- Generator: Adobe Illustrator 22.1.0, SVG Export Plug-In . SVG Version: 6.00 Build 0)  -->
<svg version="1.1" id="Layer_1" xmlns="http://www.w3.org/2000/svg" xmlns:xlink="http://www.w3.org/1999/xlink" x="0px" y="0px"
	 width="602.7px" height="230.6px" viewBox="0 0 602.7 230.6" style="enable-background:new 0 0 602.7 230.6;" xml:space="preserve"
	>
<style type="text/css">
	.st0{fill:#E1251B;}
</style>
<g>
	<path d="M311,130.5c0.8-19.3-3.4-42.2-35.6-42.1c-17.5,0-30.9,14.2-30.9,34.3c0,19.6,13.7,34.5,30.9,34.5c6.9,0,13.6-2.6,17.8-8.2
		c0.5,4.3,4.4,7.5,8.9,7.5c8.9,0,8.9-7.1,8.9-11.6V130.5L311,130.5z M278,104.7c9.7,0,14.4,9.4,14.4,17.9c0,8.5-4.5,18.2-14.4,18.2
		c-10.2,0-14.8-9.7-14.8-18.2C263.2,114.1,267.9,104.7,278,104.7"/>
	<path d="M177.8,103.6c-0.9-2.2-1.2-3.6-1.2-5.3c0-5.6,4.7-8.6,9.7-8.6c5.2,0,7.4,3.6,8.3,6.3l11.9,35.1h0.2L218.7,96
		c0.9-2.7,3.1-6.3,8.3-6.3c5,0,9.7,3,9.7,8.6c0,1.6-0.2,3-1.1,5.3l-18.8,46c-1.8,4.5-3.8,7.4-10.1,7.4c-6.4,0-8.3-2.8-10.1-7.4
		L177.8,103.6"/>
	<path d="M323.8,98.6c0-5.9,4.9-8.9,9.6-8.9c4.9,0,9.1,1.7,9.1,7.4h0.3c3.5-6.3,9.7-7.2,13.1-7.4c8.6-0.6,13.9,2.3,13.9,8.7
		c0,3.2-3,7.6-10.6,6c-5.3-1.2-10.4,0.7-12.3,2.3c-4.7,4-4.4,9-4.4,16v24.3c0,6-3.9,9.9-9.3,9.9c-5.4,0-9.3-3.9-9.3-9.9V98.6"/>
	<path d="M380.2,99.6c0-5.9,3.9-9.9,9.3-9.9c5.5,0,9.3,3.9,9.3,9.9v47.5c0,6-3.9,9.9-9.3,9.9c-5.4,0-9.3-3.9-9.3-9.9V99.6"/>
	<path d="M400.1,77.2c0,5.5-4.7,10.3-10.5,10.3c-5.6,0-10.5-4.8-10.5-10.3c0-5.1,4.9-9.8,10.5-9.8C395.1,67.4,400.1,71.9,400.1,77.2
		"/>
	<path d="M468.7,129.2c5.7,0,8.2-2.6,8.2-7.9c0-14.9-13.3-32.4-33.5-32.4c-19.7,0-33.4,16.4-33.4,34.5c0,19.7,14,34.3,35,34.3
		c13.9,0,30.4-7.4,30.4-15.1c0-3.8-3.6-7.7-7.6-7.7c-4.9,0-11.5,7.2-21.1,7.2c-8.7,0-16.3-4.1-17.6-12.9H468.7L468.7,129.2z
		 M428.5,117.4c0.9-7.6,6.5-13.6,14.8-13.6c8.7,0,13.9,5.8,14.9,13.6H428.5"/>
	<path d="M494.7,106h-4.2c-5.1,0-8.2-3-8.2-7.8c0-4.5,3.5-7.8,8.2-7.8h4.2V76.2c0-5.9,3.9-9.9,9.3-9.9c5.4,0,9.3,4,9.3,9.9v14.2h5.3
		c4.8,0,8.9,2.1,8.9,7.8c0,5.6-4.1,7.8-8.9,7.8h-5.3v41c0,6-3.9,9.9-9.3,9.9c-5.4,0-9.3-3.9-9.3-9.9V106"/>
	<path class="st0" d="M206.3,180h-1.1c-1.4,0-2.2-0.9-2.2-2.2c0-1.3,1-2.2,2.2-2.2h1.1v-3.1c0-1.7,1.1-2.9,2.6-2.9
		c1.5,0,2.6,1.1,2.6,2.9v3.1h1.5c1.3,0,2.5,0.6,2.5,2.2c0,1.6-1.1,2.2-2.5,2.2h-1.5v11.8c0,1.7-1.1,2.9-2.6,2.9
		c-1.5,0-2.6-1.1-2.6-2.9V180z"/>
	<path class="st0" d="M216.8,169.8c0-1.7,1.1-2.9,2.6-2.9c1.5,0,2.6,1.1,2.6,2.9v7h0.1c1.1-1.3,3.1-1.8,4.7-1.8c4,0,7,2.6,7,6.9v9.8
		c0,1.7-1.1,2.9-2.6,2.9c-1.5,0-2.6-1.1-2.6-2.9v-8.9c0-2.4-1.5-3.5-3.4-3.5c-2.1,0-3.3,1.5-3.3,3.5v8.9c0,1.7-1.1,2.9-2.6,2.9
		c-1.5,0-2.6-1.1-2.6-2.9V169.8z"/>
	<path class="st0" d="M242,186.7c0.4,2.5,2.5,3.7,4.8,3.7c2.6,0,4.5-2.1,5.8-2.1c1.1,0,2.1,1.1,2.1,2.2c0,2.2-4.6,4.3-8.4,4.3
		c-5.8,0-9.6-4.2-9.6-9.9c0-5.2,3.8-9.9,9.2-9.9c5.6,0,9.2,5.1,9.2,9.3c0,1.5-0.7,2.3-2.2,2.3H242z M250.1,183.2
		c-0.3-2.2-1.7-3.9-4.1-3.9c-2.3,0-3.8,1.7-4.1,3.9H250.1z"/>
	<path class="st0" d="M280.4,180.7c-1.3,0-2.4-1-4.1-1c-2.9,0-4.3,2.6-4.3,5.2c0,2.5,1.5,5.2,4.3,5.2c1.3,0,3.2-1.1,3.8-1.1
		c1.2,0,2.2,1,2.2,2.2c0,2.6-4.4,3.5-6.3,3.5c-5.5,0-9.2-4.5-9.2-9.9c0-5.2,3.8-9.9,9.2-9.9c2,0,6.3,0.7,6.3,3.2
		C282.4,179.3,281.6,180.7,280.4,180.7z"/>
	<path class="st0" d="M285.4,169.8c0-1.7,1.1-2.9,2.6-2.9c1.5,0,2.6,1.1,2.6,2.9v7h0.1c1.1-1.3,3.1-1.8,4.7-1.8c4,0,7,2.6,7,6.9v9.8
		c0,1.7-1.1,2.9-2.6,2.9c-1.5,0-2.6-1.1-2.6-2.9v-8.9c0-2.4-1.5-3.5-3.4-3.5c-2.1,0-3.3,1.5-3.3,3.5v8.9c0,1.7-1.1,2.9-2.6,2.9
		c-1.5,0-2.6-1.1-2.6-2.9V169.8z"/>
	<path class="st0" d="M311.9,170.4c0,1.6-1.3,3-2.9,3c-1.5,0-2.9-1.4-2.9-3c0-1.5,1.4-2.8,2.9-2.8S311.9,168.9,311.9,170.4z
		 M306.4,178.1c0-1.7,1.1-2.9,2.6-2.9c1.5,0,2.6,1.1,2.6,2.9v13.7c0,1.7-1.1,2.9-2.6,2.9c-1.5,0-2.6-1.1-2.6-2.9V178.1z"/>
	<path class="st0" d="M315.6,169.8c0-1.7,1.1-2.9,2.6-2.9c1.5,0,2.6,1.1,2.6,2.9v22c0,1.7-1.1,2.9-2.6,2.9c-1.5,0-2.6-1.1-2.6-2.9
		V169.8z"/>
	<path class="st0" d="M342.4,191.8c0,1.7-1.1,2.9-2.6,2.9c-1.4,0-2.2-0.8-2.6-2.1c-1,1.6-3,2.4-4.7,2.4c-5.2,0-8.4-4.8-8.4-9.7
		c0-5,2.7-10.2,8.3-10.2c1.8,0,3.5,0.6,4.9,1.8v-7c0-1.7,1.1-2.9,2.6-2.9c1.5,0,2.6,1.1,2.6,2.9V191.8z M333.2,179.7
		c-2.7,0-4,2.8-4,5.2c0,2.4,1.3,5.2,4,5.2c2.8,0,4-2.9,4-5.3C337.2,182.3,335.9,179.7,333.2,179.7z"/>
	<path class="st0" d="M346.5,177.8c0-1.7,1.4-2.6,2.6-2.6c1.4,0,2.5,0.5,2.5,2.1h0.1c1-1.4,2-2.1,3.6-2.1c1.2,0,2.5,0.9,2.5,2.7
		c0,1.7-1.5,1.8-3.1,2.5c-1.5,0.7-3.1,1.4-3.1,3.4v7.9c0,1.7-1.1,2.9-2.6,2.9c-1.5,0-2.6-1.1-2.6-2.9V177.8z"/>
	<path class="st0" d="M363.1,186.7c0.4,2.5,2.5,3.7,4.8,3.7c2.6,0,4.5-2.1,5.8-2.1c1.1,0,2.1,1.1,2.1,2.2c0,2.2-4.6,4.3-8.4,4.3
		c-5.8,0-9.6-4.2-9.6-9.9c0-5.2,3.8-9.9,9.2-9.9c5.6,0,9.2,5.1,9.2,9.3c0,1.5-0.7,2.3-2.2,2.3H363.1z M371.2,183.2
		c-0.3-2.2-1.7-3.9-4.1-3.9c-2.3,0-3.8,1.7-4.1,3.9H371.2z"/>
	<path class="st0" d="M379.4,178.1c0-1.7,1.1-2.9,2.6-2.9c1.3,0,2.2,0.7,2.4,1.9c1-1.4,2.5-2.1,5-2.1c4,0,7,2.6,7,6.9v9.8
		c0,1.7-1.1,2.9-2.6,2.9c-1.5,0-2.6-1.1-2.6-2.9v-8.9c0-2.4-1.5-3.5-3.4-3.5c-2.1,0-3.3,1.5-3.3,3.5v8.9c0,1.7-1.1,2.9-2.6,2.9
		c-1.5,0-2.6-1.1-2.6-2.9V178.1z"/>
	<path class="st0" d="M396.2,170.8c0-1.3,0.8-2.1,2.1-2.1c1.3,0,2.1,0.9,2.1,2.1v6.1c0,1.3-0.8,2.1-2.1,2.1c-1.3,0-2.1-0.9-2.1-2.1
		V170.8z"/>
	<path class="st0" d="M414.7,181c-1,0-2.9-1.5-4.6-1.5c-0.9,0-1.7,0.4-1.7,1.4c0,2.4,8.9,2,8.9,7.9c0,3.4-2.9,6-7.3,6
		c-2.9,0-7.2-1.6-7.2-4c0-0.8,0.8-2.3,2.2-2.3c2,0,2.9,1.7,5.3,1.7c1.6,0,2-0.5,2-1.5c0-2.4-8.9-2-8.9-7.9c0-3.6,2.9-6,7-6
		c2.5,0,6.4,1.2,6.4,3.7C416.8,179.9,415.9,181,414.7,181z"/>
	<path class="st0" d="M443.8,180.7c-1.3,0-2.4-1-4.1-1c-2.9,0-4.3,2.6-4.3,5.2c0,2.5,1.5,5.2,4.3,5.2c1.3,0,3.2-1.1,3.8-1.1
		c1.2,0,2.2,1,2.2,2.2c0,2.6-4.4,3.5-6.3,3.5c-5.5,0-9.2-4.5-9.2-9.9c0-5.2,3.8-9.9,9.2-9.9c2,0,6.3,0.7,6.3,3.2
		C445.8,179.3,445.1,180.7,443.8,180.7z"/>
	<path class="st0" d="M448.8,169.8c0-1.7,1.1-2.9,2.6-2.9c1.5,0,2.6,1.1,2.6,2.9v7h0.1c1.1-1.3,3.1-1.8,4.7-1.8c4,0,7,2.6,7,6.9v9.8
		c0,1.7-1.1,2.9-2.6,2.9c-1.5,0-2.6-1.1-2.6-2.9v-8.9c0-2.4-1.5-3.5-3.4-3.5c-2.1,0-3.3,1.5-3.3,3.5v8.9c0,1.7-1.1,2.9-2.6,2.9
		c-1.5,0-2.6-1.1-2.6-2.9V169.8z"/>
	<path class="st0" d="M487.4,191.3c0,1.3,0,3.4-2.5,3.4c-1.5,0-2.1-0.8-2.5-2.2c-1.3,1.6-2.9,2.4-4.9,2.4c-4.8,0-8.5-4.1-8.5-9.9
		c0-5.6,3.8-9.9,8.5-9.9c1.9,0,3.7,0.7,4.9,2.4c0.1-1.2,1.2-2.1,2.5-2.1c2.5,0,2.5,2,2.5,3.4V191.3z M478.4,190.1c2.7,0,4-2.7,4-5.2
		c0-2.5-1.2-5.2-4-5.2c-2.8,0-4.1,2.8-4.1,5.2C474.3,187.4,475.6,190.1,478.4,190.1z"/>
	<path class="st0" d="M491.5,177.8c0-1.7,1.4-2.6,2.6-2.6c1.4,0,2.5,0.5,2.5,2.1h0.1c1-1.4,2-2.1,3.6-2.1c1.2,0,2.5,0.9,2.5,2.7
		c0,1.7-1.5,1.8-3.1,2.5c-1.5,0.7-3.1,1.4-3.1,3.4v7.9c0,1.7-1.1,2.9-2.6,2.9c-1.5,0-2.6-1.1-2.6-2.9V177.8z"/>
	<path class="st0" d="M510.1,170.4c0,1.6-1.3,3-2.9,3c-1.5,0-2.9-1.4-2.9-3c0-1.5,1.4-2.8,2.9-2.8S510.1,168.9,510.1,170.4z
		 M504.7,178.1c0-1.7,1.1-2.9,2.6-2.9c1.5,0,2.6,1.1,2.6,2.9v13.7c0,1.7-1.1,2.9-2.6,2.9c-1.5,0-2.6-1.1-2.6-2.9V178.1z"/>
	<path class="st0" d="M515.1,180H514c-1.4,0-2.2-0.9-2.2-2.2c0-1.3,1-2.2,2.2-2.2h1.1v-3.1c0-1.7,1.1-2.9,2.6-2.9
		c1.5,0,2.6,1.1,2.6,2.9v3.1h1.5c1.3,0,2.5,0.6,2.5,2.2c0,1.6-1.1,2.2-2.5,2.2h-1.5v11.8c0,1.7-1.1,2.9-2.6,2.9
		c-1.5,0-2.6-1.1-2.6-2.9V180z"/>
	<path class="st0" d="M525.1,178.8c-0.1-0.4-0.2-0.8-0.2-1.3c0-1.3,1.4-2.2,2.4-2.2c1.2,0,2.1,0.7,2.6,1.8l3.5,9.7l3.8-9.7
		c0.4-1.1,1.3-1.8,2.6-1.8c1.1,0,2.4,0.9,2.4,2.2c0,0.5-0.1,0.9-0.3,1.3l-8.6,21.4c-0.4,1.1-1.2,2-2.4,2c-1.7,0-2.7-1.1-2.7-2.2
		c0-0.5,0.1-1,0.3-1.5l2.2-5.6L525.1,178.8z"/>
	<path class="st0" d="M91.3,80.9C80.1,94,62.7,111.2,48.4,119.3c-0.6-4.2-3.5-17.7,1-27c2.9-7.4,10.2-13.8,20.2-15.9
		c5.4-1,8.3-0.4,11.3,0C85.5,77,89.5,79.3,91.3,80.9"/>
	<path d="M68.4,10.6c0,1.6,0.5,4.1,0.9,5.8c-1.4,0-2.4,0.1-2.6,0c-0.4-1.1-0.6-3.3-1-5.7C65.8,10.3,68.4,10.4,68.4,10.6"/>
	<path d="M69.8,18.4C71.6,27.3,76,39,82.5,49.9c-0.5,0.3-2,0.9-2.3,0.7C74.8,41.4,69.3,29,67.4,18.4H69.8"/>
	<path d="M142,53.3c-15-5.6-31.4,5.6-48.6,24.7c-13.8,14.9-23.1,25.8-38.1,36.2c-8,5.5-24.5,12.8-35,9.5c-3.2-1.2-6.1-4.9-4.5-9.2
		c3.5-9.5,13.8-17.8,26.1-18.2c0.3-2.6,0.4-5.9-2.6-10.3c8.3-7.7,15.7-14,25.2-20c10.1-6.4,21.7-10.7,32.8-12.2l6.1,6.3l1.9-1.5
		c-0.8-1.4-3-2.9-5.2-6.3c-7.6-12-11.9-24.8-14.3-34.2C82.2,3.9,85.1,1.5,81.1,0.5c-4.5-1.1-37.2-2.3-61.7,21.4
		C10.1,30.7,1.5,42.4,0,56c0,3.6,3.6,5.9,7.1,6.8c13.5,1.4,21.4,13.2,28.6,22.9c2.1,3,4.3,5.9,3.4,7.9c-11,2.1-22.2,10.3-25.7,21
		c-1.2,4.7,0.6,8.9,3.2,12.1c4.2,4.3,8.2,7.9,15.1,7.2c23.7-2.4,38.5-16.1,53.4-33.5c14.5-16.9,20.6-24.2,33.7-33
		c8.1-5.5,17.6-7.5,25.6-7.2c6,0.2,8.5,4.9,9.1,10.5c0.4,4,0.2,7.6-1,13.6c-0.5,2.5,0.5,2.5,2.1,3.7c0,0,1.6-4.5,2.1-9.3
		C158.1,67.3,154.5,57.9,142,53.3z M37.9,83.6c0,0-16.8-23.9-30.1-23.5c-2.9-0.4-5-2.6-4.8-4.3c0.1-7.9,4.8-14,8.5-20.6
		C26.9,14.6,57.9,0.8,80.2,3.4c2.8,0.4-2.9,11.3,15.9,47.8c-2.6,0.7-13.6,2.1-23.9,7.5C59.7,65.4,47.9,73.6,37.9,83.6z M96.1,83.7
		c-20.3,22.2-34.5,42.8-63.2,46.9c-5.5,0.8-8.3-0.2-10.7-2.9c7.4,1.1,14.2-1,20.8-3.3c31.2-11.1,53.4-49.5,72.2-62.2
		c9.3-6.3,22.5-10.5,28.3-4.7C126.9,57.2,114.2,64,96.1,83.7z"/>
	<path class="st0" d="M160.8,103.4c-0.8,13.5-4.6,20.7-10.1,28.4c-5.5,7.7-13,18.3-17.1,24.5c-4.1,6.2-10.3,15.1-13.6,24.3
		c-1.1,3-3.3,9.8-3.3,9.8c-3.5-3.6-17.1-15.3-24.1-19.6c-7-4.3-15.7-10.5-22.5-17.2c-6.8-6.7-15.9-19.8-16.5-23.4
		c15.9-6.4,27.9-20.1,34.8-29.1c8-10.3,18.4-23.9,33.4-27.6c7.7-2.2,17.6-1.5,24.2,2C152.8,79.3,161.7,89.9,160.8,103.4"/>
	<path d="M538.3,102c-0.5-1.4-0.9-2.7-0.9-4.6c0-4.5,4.9-7.6,8.8-7.6c4.6,0,7.8,2.3,9.3,6.3l12.8,33.5L582.1,96
		c1.6-4,4.8-6.3,9.3-6.3c3.9,0,8.8,3.2,8.8,7.6c0,1.9-0.2,3.2-0.9,4.6l-31.2,74.2c-1.5,3.7-4.4,7-8.8,7c-6.4,0-9.7-3.8-9.7-7.6
		c0-1.7,0.5-3.6,1.2-5.2l8.2-19.3L538.3,102"/>
	<g>
		<path d="M594.7,160.8c-4.3,0-7.9-3.5-7.9-8c0-4.5,3.6-8,7.9-8c4.3,0,7.9,3.5,7.9,8C602.7,157.2,599.1,160.8,594.7,160.8z
			 M594.7,146.1c-3.5,0-6.4,2.9-6.4,6.7c0,3.7,2.8,6.7,6.4,6.7c3.5,0,6.4-3,6.4-6.7C601.1,149,598.3,146.1,594.7,146.1z
			 M596.5,157.2l-0.8-1.4c-0.6-1.1-1-1.7-1.5-2.2c-0.2-0.2-0.3-0.3-0.6-0.3v3.9h-1.5v-8.9h2.7c2,0,2.9,1.2,2.9,2.6
			c0,1.4-0.9,2.5-2.2,2.5c0.3,0.2,0.9,1,1.4,1.8l1.3,2.1H596.5z M594.5,149.5h-0.8v2.8h0.8c0.8,0,1.2-0.1,1.4-0.4
			c0.3-0.3,0.4-0.6,0.4-1.1C596.3,149.9,595.8,149.5,594.5,149.5z"/>
	</g>
</g>
<g>
	<path d="M438.1,215.5c2.8,0,4.1,2.8,4.1,5.2c0,2.5-1.3,5.2-4.1,5.2c-2.8,0-4.1-2.7-4.1-5.2C434,218.3,435.3,215.5,438.1,215.5
		 M438.1,210.8c-5.4,0-9.2,4.7-9.2,9.9c0,5.3,3.7,9.9,9.2,9.9c5.5,0,9.2-4.5,9.2-9.9C447.3,215.5,443.5,210.8,438.1,210.8
		 M424.2,203.3c-1.5,0-2.9,1.3-2.9,2.8c0,1.6,1.4,3,2.9,3c1.6,0,2.9-1.4,2.9-3C427.1,204.6,425.8,203.3,424.2,203.3 M421.7,227.5
		c0,1.7,1.1,2.9,2.6,2.9c1.5,0,2.6-1.1,2.6-2.9v-13.7c0-1.7-1.1-2.9-2.6-2.9c-1.5,0-2.6,1.1-2.6,2.9V227.5z M409.4,227.5
		c0,1.7,1.1,2.9,2.6,2.9s2.6-1.1,2.6-2.9v-7.9c0-2,1.6-2.7,3.1-3.4c1.5-0.7,3.1-0.8,3.1-2.5c0-1.9-1.3-2.7-2.5-2.7
		c-1.6,0-2.6,0.7-3.6,2.1h-0.1c0-1.6-1.1-2.1-2.5-2.1c-1.3,0-2.6,0.9-2.6,2.6V227.5z M393.1,220.7c0-2.5,1.2-5.2,4.1-5.2
		c2.7,0,4,2.8,4,5.2c0,2.5-1.3,5.2-4,5.2C394.4,225.9,393.1,223.2,393.1,220.7 M406.2,214.4c0-1.3,0-3.3-2.5-3.3
		c-1.2,0-2.3,0.9-2.5,2.1c-1.1-1.6-3-2.4-4.9-2.4c-4.7,0-8.5,4.3-8.5,9.9c0,5.8,3.7,9.9,8.5,9.9c2,0,3.6-0.8,4.9-2.4
		c0.4,1.4,1,2.2,2.5,2.2c2.5,0,2.5-2,2.5-3.3V214.4z M379.3,227.5c0,1.7,1.1,2.9,2.6,2.9c1.5,0,2.6-1.1,2.6-2.9v-11.8h1.5
		c1.3,0,2.5-0.6,2.5-2.2c0-1.6-1.1-2.2-2.5-2.2h-1.5v-3.1c0-1.7-1.1-2.9-2.6-2.9c-1.5,0-2.6,1.1-2.6,2.9v3.1h-1.1
		c-1.3,0-2.2,1-2.2,2.2c0,1.4,0.9,2.2,2.2,2.2h1.1V227.5z M358.1,227.5c0,1.7,1.1,2.9,2.6,2.9c1.5,0,2.6-1.1,2.6-2.9v-8.9
		c0-2,1.2-3.5,3.3-3.5c1.9,0,3.3,1.1,3.3,3.5v8.9c0,1.7,1.1,2.9,2.6,2.9c1.5,0,2.6-1.1,2.6-2.9v-9.8c0-4.3-3-6.9-7-6.9
		c-2.4,0-4,0.7-5,2.1c-0.2-1.2-1-1.9-2.4-1.9c-1.5,0-2.6,1.1-2.6,2.9V227.5z M346.7,215.5c2.8,0,4.1,2.8,4.1,5.2
		c0,2.5-1.3,5.2-4.1,5.2c-2.8,0-4.1-2.7-4.1-5.2C342.6,218.3,343.9,215.5,346.7,215.5 M346.7,210.8c-5.4,0-9.2,4.7-9.2,9.9
		c0,5.3,3.7,9.9,9.2,9.9c5.5,0,9.2-4.5,9.2-9.9C355.9,215.5,352.1,210.8,346.7,210.8 M319.3,227.5c0,1.7,1.1,2.9,2.6,2.9
		c1.5,0,2.6-1.1,2.6-2.9v-11.8h1.6c1.5,0,2.6-0.6,2.6-2.2c0-1.6-1.1-2.2-2.6-2.2h-1.6v-2.1c0-1.9,0.9-1.9,1.7-1.9
		c1.4,0,2.1-0.7,2.1-2.2c0-1.8-1.7-2.3-3.6-2.3c-3.1,0-5.4,2.1-5.4,5.8v2.6h-1.1c-1.3,0-2.2,1-2.2,2.2c0,1.4,0.9,2.2,2.2,2.2h1.1
		V227.5z M306.9,215.5c2.8,0,4.1,2.8,4.1,5.2c0,2.5-1.3,5.2-4.1,5.2c-2.8,0-4.1-2.7-4.1-5.2C302.9,218.3,304.1,215.5,306.9,215.5
		 M306.9,210.8c-5.4,0-9.2,4.7-9.2,9.9c0,5.3,3.7,9.9,9.2,9.9c5.5,0,9.2-4.5,9.2-9.9C316.1,215.5,312.3,210.8,306.9,210.8"/>
</g>
</svg>
